<svg width="223" height="103" viewBox="0 0 223 103" fill="none" xmlns="http://www.w3.org/2000/svg">
<g clip-path="url(#clip0_18_3)">
<path opacity="0.5" fill-rule="evenodd" clip-rule="evenodd" d="M114.995 50.542C114.995 49.932 115.682 50.542 116.368 49.932C116.978 49.932 117.588 48.559 118.274 47.951C119.574 46.651 119.574 45.358 120.866 44.062C121.553 42.162 122.772 40.785 124.145 38.879C124.754 37.579 125.364 35.6 126.737 34.379C126.051 33.693 126.051 34.379 125.364 34.989H124.145C122.772 35.598 122.162 36.289 120.866 36.289C120.866 34.383 123.458 34.989 124.145 33.01C124.754 33.01 124.754 33.697 124.754 33.697C126.054 33.01 126.737 32.397 127.954 32.397C129.327 31.787 129.937 30.414 131.233 29.804C131.233 31.104 130.547 31.104 129.933 31.787C129.933 31.787 128.633 33.006 127.95 33.693C126.731 36.285 126.05 38.876 123.45 40.782C122.15 44.746 119.562 47.338 116.971 50.54C116.367 50.542 115.684 51.152 114.995 50.542ZM177.884 21.425V22.035C177.884 22.645 177.198 22.645 177.198 22.645C177.198 24.016 176.588 24.016 176.588 24.016C175.978 25.236 175.288 25.236 175.288 26.608L174.602 27.218H173.992C172.692 30.418 170.105 32.403 168.199 34.994C164.92 36.975 163.016 38.881 159.051 40.787C159.01 41.3008 158.795 41.7853 158.441 42.16C157.141 42.16 157.141 40.177 156.458 38.881C155.704 37.8623 155.067 36.7625 154.558 35.602C153.886 33.2779 152.773 31.1049 151.279 29.202C151.279 28.515 150.669 29.811 150.669 29.811C150.297 28.9956 150.09 28.1147 150.06 27.219C150.06 27.219 150.06 25.919 149.373 25.919L148.687 24.619H147.466C146.78 24.619 145.485 25.919 144.875 26.6C142.283 29.193 139.006 32.395 136.413 34.986C135.113 36.967 133.136 38.186 131.23 40.169C130.578 41.3909 129.698 42.477 128.638 43.369C127.645 44.0933 126.77 44.9678 126.046 45.961C124.14 47.334 122.767 49.24 120.862 50.535C118.956 52.516 116.975 53.127 114.992 55.108C113.773 55.718 112.4 57.014 110.492 58.308L109.806 58.918C107.9 60.291 105.994 62.197 103.406 63.492C102.498 64.9324 101.395 66.2404 100.129 67.379H99.4421C98.0719 68.1278 96.9573 69.2699 96.2421 70.658L94.2601 71.877C94.2024 72.3864 93.9894 72.8657 93.6501 73.25C91.6681 75.156 89.7631 76.45 88.4671 77.75C87.8571 78.436 87.8571 79.05 87.1671 79.05C86.9038 79.3021 86.7042 79.6132 86.5848 79.9577C86.4653 80.3021 86.4294 80.67 86.4801 81.031C85.8711 81.031 85.2611 81.641 84.5801 81.641C84.3202 82.4747 83.8961 83.248 83.333 83.9156C82.77 84.5831 82.0791 85.1313 81.3011 85.528C80.6911 86.828 79.3951 88.121 78.7091 89.417C77.6308 90.8095 76.7579 92.3495 76.1171 93.99L74.8971 95.21C74.2111 96.581 74.2111 97.802 73.5241 98.487C72.7707 99.5059 72.1334 100.606 71.6241 101.766C71.4513 101.937 71.2176 102.034 70.9741 102.034C70.7306 102.034 70.497 101.937 70.3241 101.766C67.0093 103.69 63.1157 104.366 59.3461 103.672C57.9741 102.372 55.3821 102.372 54.7721 100.393C54.7721 98.487 56.0721 97.801 56.7551 96.581C57.5476 96.0922 58.2033 95.4107 58.6611 94.6C59.0317 93.9005 59.4669 93.2373 59.9611 92.619C60.9888 91.696 61.8636 90.6159 62.5531 89.419C63.8531 88.119 65.1451 87.436 65.1451 86.219C67.1281 85.532 67.7371 84.236 69.7191 82.94C70.0468 82.5767 70.2591 82.1242 70.3291 81.64C71.502 81.1529 72.434 80.2209 72.9211 79.048C75.5131 77.065 78.7151 75.161 81.3061 72.568V71.882C82.5421 71.2162 83.6519 70.3389 84.5851 69.29C87.1771 68.07 88.4731 66.09 89.7681 64.79C90.9351 63.553 92.2392 62.4529 93.6551 61.511C93.6551 61.511 94.2651 60.292 94.9551 60.902C95.6421 58.919 96.8611 58.309 98.2341 57.013C98.8441 55.713 100.14 55.107 100.826 53.736C102.046 53.126 102.046 52.516 102.046 52.516C102.669 52.1902 103.336 51.959 104.027 51.83C104.027 51.144 104.637 50.53 105.327 49.924L106.013 49.238C106.004 49.1521 106.014 49.0653 106.04 48.9831C106.067 48.901 106.11 48.8252 106.167 48.7606C106.225 48.696 106.295 48.6441 106.373 48.608C106.452 48.5719 106.537 48.5525 106.623 48.551L107.233 47.942C107.851 47.4478 108.515 47.0126 109.214 46.642C109.824 45.342 109.824 44.736 110.514 44.049L112.42 42.149C112.511 42.1509 112.601 42.1345 112.685 42.1006C112.769 42.0668 112.846 42.0162 112.91 41.952C112.974 41.8879 113.025 41.8114 113.059 41.7271C113.093 41.6429 113.109 41.5528 113.107 41.462L114.407 39.556C115.016 38.87 115.016 38.87 115.707 38.185L116.393 36.965C116.393 36.279 117.613 35.592 117.613 34.373C118.984 34.373 118.984 33.687 118.984 33.687C119.281 32.6187 119.959 31.6962 120.89 31.094C122.19 28.502 123.482 27.817 124.169 26.594C124.778 26.594 125.388 25.223 126.761 25.223C127.238 24.2528 127.883 23.3751 128.667 22.631C128.711 22.2312 128.853 21.8484 129.08 21.5162C129.306 21.1839 129.611 20.9122 129.967 20.725C130.722 19.3663 131.827 18.2342 133.167 17.446C134.333 15.8157 135.661 14.3079 137.131 12.946C137.131 11.646 136.444 11.646 136.444 9.66901C136.444 9.66901 137.131 9.05901 137.744 8.44901C138.084 8.06492 138.297 7.58549 138.354 7.07601C139.727 6.46701 140.337 5.17601 141.633 3.87601V3.26701C141.982 3.24051 142.308 3.08523 142.548 2.83142C142.788 2.57762 142.926 2.24345 142.933 1.89401C143.543 1.89401 143.543 1.28401 144.233 0.675007H144.919C145.234 0.311381 145.665 0.0685065 146.139 -0.0119933C146.849 0.340629 147.514 0.777076 148.12 1.28801C151.32 -1.30399 153.305 4.48801 155.896 5.86201C157.196 7.76801 159.096 9.06201 161.079 11.655C161.08 12.3618 160.868 13.0524 160.469 13.636C161.079 14.246 161.689 12.95 162.375 13.636C162.375 14.246 163.062 14.246 163.675 14.856C164.285 15.542 164.285 14.856 164.975 14.856C165.662 15.542 165.662 16.229 166.275 15.542L166.885 17.448C168.868 17.448 169.477 18.134 170.849 18.821C171.166 19.1691 171.601 19.3866 172.069 19.431H172.755L173.441 20.04C175.347 20.04 176.033 21.413 177.253 21.413L177.884 21.425ZM163.629 29.201H164.239C163.629 28.514 164.239 27.218 164.239 27.218C164.16 27.3004 164.066 27.3659 163.961 27.4107C163.856 27.4555 163.744 27.4786 163.63 27.4786C163.516 27.4786 163.403 27.4555 163.298 27.4107C163.193 27.3659 163.099 27.3004 163.02 27.218C163.022 27.825 162.335 29.198 163.631 29.198L163.629 29.201ZM161.648 26.608C161.646 26.5174 161.662 26.4272 161.696 26.3431C161.73 26.2589 161.78 26.1825 161.844 26.1184C161.909 26.0543 161.985 26.0038 162.069 25.97C162.153 25.9363 162.243 25.92 162.334 25.922V20.739C161.649 22.642 161.039 24.625 161.649 26.605L161.648 26.608ZM160.428 24.016C160.428 25.236 159.057 26.608 159.742 27.216C159.743 27.215 161.039 25.233 160.429 24.013L160.428 24.016ZM159.742 14.258C159.741 14.1718 159.721 14.0868 159.685 14.0084C159.649 13.93 159.597 13.8599 159.533 13.8026C159.468 13.7453 159.393 13.7019 159.311 13.6753C159.229 13.6487 159.142 13.6394 159.056 13.648C159.058 14.255 160.429 14.255 159.743 14.255L159.742 14.258ZM159.056 23.33C159.056 25.236 157.836 27.217 158.446 29.2C158.918 27.279 159.124 25.3021 159.058 23.325L159.056 23.33ZM154.556 7.09201C154.36 6.75058 154.084 6.46152 153.752 6.24932C153.42 6.03712 153.042 5.90803 152.65 5.87301C151.967 7.08901 153.873 8.46201 154.56 7.08901L154.556 7.09201ZM151.277 4.50001V5.18701C152.65 5.18701 151.963 4.50001 151.963 4.50001H151.277ZM150.667 2.59401V3.28101C151.284 3.27901 151.284 2.59201 150.671 2.59201L150.667 2.59401ZM127.341 25.921C129.322 24.621 130.541 22.644 131.914 21.421C132.33 20.4153 132.984 19.5258 133.82 18.829C134.506 18.142 135.726 16.846 136.412 16.237V15.55C136.914 15.4866 137.376 15.2428 137.712 14.864C134.161 17.8049 130.894 21.0729 127.954 24.625C127.954 24.625 126.735 25.233 127.345 25.919L127.341 25.921ZM121.548 33.01C124.14 31.791 126.731 30.418 129.323 29.199C130.602 27.2907 132.114 25.5489 133.823 24.014V23.325C134.262 22.7861 134.504 22.1138 134.509 21.419C134.863 21.2183 135.16 20.9314 135.373 20.5851C135.587 20.2388 135.709 19.8442 135.729 19.438C137.102 16.845 139.008 16.238 139.693 14.253C138.32 14.253 138.32 14.863 137.71 15.553C137.381 16.2536 136.942 16.8971 136.41 17.459C136.41 17.459 135.724 18.145 135.11 18.832C134.407 19.8435 133.53 20.7213 132.518 21.424C131.218 23.33 129.318 24.624 127.944 26.607L126.044 27.827H124.744C124.135 28.513 123.444 29.808 122.762 30.419C122.771 30.417 120.865 31.789 121.552 33.008L121.548 33.01ZM93.6481 63.503C94.5523 62.4557 95.6359 61.578 96.8481 60.911C100.127 58.928 102.718 56.337 105.995 53.745C105.904 53.6714 105.831 53.5785 105.781 53.4729C105.73 53.3674 105.704 53.2519 105.704 53.135C105.704 53.0181 105.73 52.9026 105.781 52.7971C105.831 52.6916 105.904 52.5986 105.995 52.525C106.605 52.525 106.605 51.839 106.605 51.839C107.905 51.839 107.215 51.153 107.905 50.539C109.205 49.929 109.811 48.556 111.184 47.947C112.229 46.7807 113.102 45.4711 113.776 44.058C112.403 44.058 112.403 45.358 111.795 45.964C109.812 47.947 107.221 49.243 105.314 51.834C104.628 51.834 104.628 53.134 103.408 53.134C102.037 55.726 99.4441 57.021 98.2251 59.613C96.2421 60.3 95.6331 61.519 93.6511 62.206L93.6481 63.503ZM74.2091 93.995C72.3031 95.215 71.6171 97.807 70.3221 99.788V100.398C71.6221 99.788 71.6221 99.179 71.6221 99.179C72.1447 98.581 72.5821 97.9137 72.9221 97.196C73.5241 95.214 74.2111 94.604 74.2111 93.994L74.2091 93.995ZM81.9841 80.35V79.05C82.4553 78.6562 82.8903 78.2212 83.2841 77.75V77.063L83.8941 76.454L84.5811 75.844C84.6533 75.3236 84.8943 74.8412 85.2671 74.471C85.5988 74.1427 85.8132 73.7143 85.8771 73.252C86.4861 72.565 87.1771 71.879 87.1771 71.879C85.2711 72.565 81.9921 73.252 80.6971 75.843C81.0517 75.8058 81.4102 75.8406 81.7509 75.9455C82.0917 76.0503 82.4078 76.2229 82.6801 76.453C81.9931 77.753 81.3071 79.045 80.6971 80.34C80.0153 81.3687 79.1339 82.2502 78.1051 82.932C77.4951 84.838 76.1231 85.524 75.5131 87.432C74.2131 88.805 73.5301 91.396 72.3131 92.617C72.3131 92.617 71.6271 94.598 70.9401 94.598C70.3311 96.579 69.7211 97.19 69.0341 99.172C68.3481 99.172 67.7341 101.072 67.1341 100.391C68.3338 97.6368 69.8436 95.0283 71.6341 92.616C72.9341 88.804 75.5211 86.821 76.8171 83.616C77.8461 82.6642 78.7206 81.5579 79.4091 80.337C80.076 79.0571 80.7116 77.761 81.3151 76.45C79.4091 75.84 78.1151 77.75 76.1321 78.431C74.3498 80.3269 72.4066 82.0647 70.3241 83.625L70.9331 85.525C70.3241 86.212 70.3241 87.431 69.7141 88.118C69.7141 90.018 68.3411 90.018 68.3411 92.005C68.0952 92.7515 67.6776 93.4299 67.1218 93.9857C66.5661 94.5415 65.8876 94.9591 65.1411 95.205L64.5311 95.891V96.577C63.8175 96.8901 63.1509 97.3007 62.5501 97.797C62.5093 98.3108 62.2941 98.7953 61.9401 99.17C61.9401 99.17 59.9591 100.389 58.6631 99.17C58.6631 97.797 59.3491 96.577 60.5691 96.577C61.2551 96.577 61.2551 97.797 61.2551 97.797C62.6166 97.3421 63.7759 96.4251 64.5321 95.205C65.1421 94.595 65.7521 93.299 67.1251 92.613C67.7341 90.02 69.0251 88.113 69.7171 84.837C69.7171 84.837 68.3441 85.523 68.3441 86.21L67.7341 86.819C67.7341 87.429 66.4341 88.119 66.4341 88.802C65.7481 88.802 66.4341 89.412 65.7481 89.412C65.7481 90.021 65.1381 90.712 65.1381 91.393C64.5281 92.003 63.8381 92.613 63.1571 93.299C61.9371 93.985 61.9371 95.891 60.5651 95.891V94.591C61.2511 93.981 63.1571 92.61 62.5461 91.391C61.2461 94.591 57.9721 96.574 56.0671 99.776C56.0671 100.386 57.3671 100.386 56.7531 101.076C58.6591 101.763 59.3451 102.376 60.5651 102.376L61.9361 101.766C62.5321 101.068 63.1686 100.406 63.8421 99.783C65.7481 97.191 68.3421 94.6 69.7121 92.008C70.0694 91.6651 70.2867 91.2019 70.3221 90.708C70.7323 90.2521 71.1663 89.8182 71.6221 89.408C71.6804 88.9042 71.9251 88.4404 72.3081 88.108C73.5271 85.515 75.5081 82.923 76.1201 80.332C76.2995 80.4011 76.4618 80.5079 76.5962 80.6453C76.7306 80.7826 76.8339 80.9473 76.8989 81.1282C76.964 81.309 76.9894 81.5017 76.9734 81.6932C76.9574 81.8847 76.9003 82.0705 76.8061 82.238C76.0302 83.6149 75.1643 84.9391 74.2141 86.202V86.811C74.1282 86.8023 74.0414 86.8115 73.9592 86.838C73.8771 86.8646 73.8013 86.9079 73.7367 86.9652C73.6721 87.0225 73.6202 87.0927 73.5841 87.1711C73.548 87.2496 73.5286 87.3347 73.5271 87.421C73.5271 87.421 72.9181 88.794 72.3081 88.794V89.404L71.6221 90.013C70.9351 91.386 69.7161 93.292 69.0291 94.587L68.3431 95.197L67.7331 95.883C67.7331 96.569 67.7331 96.569 67.1241 96.569C66.7606 96.8837 66.5177 97.315 66.4371 97.789V98.475C65.7511 99.162 64.5311 99.775 63.8451 101.067L63.1591 101.754C65.7511 101.754 67.1231 102.364 69.0281 101.754V101.067C70.3281 95.884 73.5281 92.606 76.8041 90.013C78.0307 86.5476 79.7774 83.29 81.9841 80.35ZM81.2981 84.237C80.0791 84.237 80.0791 85.537 80.0791 85.537C80.0791 85.537 80.6911 84.846 81.3011 84.236L81.2981 84.237ZM143.504 22.643C143.504 22.033 142.283 22.643 142.283 22.033C141.597 22.033 142.283 21.423 141.597 20.733C140.91 22.033 140.297 23.325 139.005 24.01C139.005 25.23 137.705 25.23 137.705 27.21L136.405 28.51C137.705 27.824 137.092 26.604 138.311 27.21C138.312 27.2905 138.298 27.3704 138.267 27.445C138.237 27.5197 138.192 27.5874 138.135 27.6444C138.079 27.7013 138.011 27.7462 137.936 27.7763C137.862 27.8065 137.782 27.8214 137.701 27.82C137.701 27.82 137.092 28.506 136.401 29.193L135.715 29.802C135.105 30.412 134.495 31.785 133.809 30.412C133.809 29.193 135.109 29.193 136.401 29.193C136.401 27.82 135.101 28.506 135.101 28.506C135.582 27.5181 136.256 26.6368 137.084 25.914L138.99 24.008C138.99 23.322 139.676 22.637 140.29 22.027L141.59 20.044C142.276 20.044 142.89 18.825 141.59 18.825C142.276 20.044 140.903 18.825 140.29 19.435C139.986 20.06 139.78 20.7282 139.68 21.416C137.697 22.026 138.307 23.322 136.401 24.008C137.088 22.637 137.088 22.027 138.307 22.027C138.307 20.044 140.29 18.827 140.899 17.453C140.29 16.843 140.899 15.547 140.899 15.547C138.999 16.234 138.307 18.826 136.399 19.436C136.399 19.436 135.713 21.417 135.099 21.417V23.325C133.799 24.625 131.899 26.602 131.211 28.508C130.529 28.8681 129.889 29.3042 129.305 29.808C128.619 30.418 128.619 30.418 127.932 31.108C126.032 32.408 123.432 33.014 121.532 33.701C120.845 34.387 120.845 35.001 120.159 35.001H119.549C118.939 36.301 117.568 37.593 116.958 38.888C118.939 38.888 121.532 36.982 122.751 38.202C122.751 39.573 121.532 40.183 121.532 40.794C120.159 40.794 120.845 42.167 119.549 42.775C119.549 43.385 119.549 43.385 118.939 44.075C118.848 44.0731 118.758 44.0896 118.674 44.1234C118.59 44.1573 118.514 44.2078 118.449 44.272C118.385 44.3362 118.335 44.4127 118.301 44.4969C118.267 44.5811 118.251 44.6713 118.253 44.762C117.567 45.981 116.347 46.668 115.661 48.573C114.361 49.26 113.755 51.852 111.774 51.166C112.383 49.946 114.365 48.573 115.661 47.354C116.347 43.39 120.161 42.171 120.844 38.892C118.938 38.892 118.252 40.192 116.344 40.798C116.344 40.798 114.971 41.484 115.658 42.171C115.658 42.171 116.344 40.798 117.564 42.171L116.954 42.78C116.344 42.78 116.954 43.39 116.954 43.39H116.344C115.658 44.763 114.362 45.371 113.752 46.669C112.379 47.969 111.16 49.261 109.788 50.556C109.443 50.9071 109.227 51.3658 109.178 51.856C108.569 51.856 108.569 52.542 108.569 53.156C107.651 53.7428 106.784 54.4055 105.976 55.137C105.602 55.4908 105.118 55.7061 104.605 55.747C102.699 57.73 102.013 58.339 100.793 58.947C97.5161 61.539 94.9231 63.521 91.6451 66.113C89.7391 67.413 87.1451 68.705 85.8521 70.687C87.1521 70.687 88.4441 69.314 89.0521 70.687C88.1835 72.1112 87.1046 73.3961 85.8521 74.498C85.8644 75.0035 85.7523 75.5043 85.5256 75.9563C85.299 76.4083 84.9646 76.7976 84.5521 77.09C83.8651 78.463 83.2521 79.683 82.6461 81.054L81.2731 82.274C83.2541 81.054 85.2371 77.774 87.1431 75.874C88.4431 73.282 91.0301 70.691 93.0121 68.708C93.6773 67.4943 94.5557 66.4103 95.6051 65.508H96.2141C96.8241 64.822 97.5141 64.137 98.1971 64.137C98.5359 63.4609 98.9445 62.8221 99.4161 62.231C99.7722 61.839 100.262 61.594 100.789 61.544L102.695 59.638C104.601 58.338 105.286 57.046 106.582 56.361C106.582 56.361 107.192 55.141 107.882 55.751C106.998 57.2085 105.892 58.5198 104.605 59.638C102.013 61.544 99.4201 64.138 96.8291 66.118C95.7362 67.3801 94.4494 68.4602 93.0171 69.318C90.4251 72.595 87.8341 75.188 85.8521 79.076C86.4611 79.076 87.1521 78.466 87.8331 77.776V77.089C88.4431 76.48 88.4431 76.48 89.0531 76.48V75.18C89.9564 74.5999 90.8221 73.9633 91.6451 73.274L93.0161 71.901L93.6261 71.291C93.6249 71.2106 93.6399 71.1308 93.6701 71.0563C93.7003 70.9818 93.7452 70.9141 93.8021 70.8573C93.859 70.8005 93.9268 70.7557 94.0013 70.7256C94.0759 70.6955 94.1557 70.6807 94.2361 70.682C95.5266 69.5373 96.6327 68.2002 97.5151 66.718C97.9103 66.6962 98.293 66.5724 98.626 66.3586C98.959 66.1448 99.2309 65.8483 99.4151 65.498C102.694 63.517 103.989 60.925 106.581 59.628C107.746 57.8015 109.31 56.263 111.155 55.128L111.765 55.738L112.374 55.128C113.061 54.442 113.747 53.757 114.357 53.757H114.966C115.156 53.6099 115.315 53.4261 115.433 53.2165C115.551 53.007 115.626 52.7759 115.653 52.537H116.953L117.563 50.556C119.544 50.556 119.544 49.256 120.84 48.573V47.964C122.14 46.664 123.432 44.764 124.727 43.39C124.727 42.78 125.337 42.171 126.027 41.484C126.713 40.184 127.327 38.892 127.327 38.892C127.674 37.4592 128.353 36.1279 129.308 35.005C129.654 34.6539 129.869 34.1952 129.918 33.705L130.528 33.018C130.528 32.409 131.214 31.112 131.214 31.799C131.9 33.018 130.528 33.018 130.528 34.391C130.197 34.7196 129.982 35.1478 129.918 35.61V36.297C129.164 37.5431 128.501 38.8421 127.935 40.184C127.326 40.794 127.326 42.167 126.716 42.776C126.716 43.386 126.03 43.386 126.03 43.386L127.93 42.167C127.906 41.8073 127.955 41.4465 128.073 41.1058C128.191 40.7652 128.376 40.4517 128.617 40.184C129.303 38.884 129.917 37.592 129.917 37.592C130.527 36.292 131.217 36.292 131.217 36.292C131.577 35.9416 131.817 35.4867 131.903 34.992C131.903 34.992 132.513 33.692 133.124 33.692C133.124 33.692 133.81 33.005 134.495 32.392C134.824 32.0605 135.253 31.8462 135.715 31.782C136.401 31.095 137.088 29.19 138.307 29.799C138.292 30.307 138.088 30.7912 137.736 31.1576C137.384 31.524 136.908 31.7465 136.401 31.782L134.495 33.688C133.05 34.8962 131.924 36.4417 131.218 38.188C131.904 38.188 131.904 36.968 133.124 36.968C133.153 36.545 133.296 36.1377 133.537 35.7891C133.779 35.4405 134.11 35.1634 134.495 34.987L135.105 34.377C135.715 34.377 135.715 34.377 135.715 33.691C136.242 33.641 136.732 33.396 137.088 33.004V32.395H137.697C138.054 32.0521 138.272 31.5889 138.307 31.095C138.668 30.745 138.908 30.29 138.994 29.795H140.294C140.294 27.814 141.594 27.814 141.594 26.595C141.594 26.595 140.907 27.815 140.907 27.205C141.601 25.233 143.507 24.625 143.507 22.642L143.504 22.643ZM150.06 11.055C150.06 11.055 150.06 9.07401 149.373 8.46301C149.481 9.77175 149.244 11.0859 148.687 12.275C148.687 12.961 148.687 14.256 148.077 14.256C148.077 12.956 148.687 11.056 148.077 9.68301C148.125 10.0377 148.095 10.3984 147.989 10.7404C147.884 11.0824 147.706 11.3975 147.467 11.664C146.781 11.054 148.077 9.68301 147.467 8.46401C147.467 8.46401 147.467 7.09101 146.781 7.09101C146.896 8.64774 146.662 10.2105 146.095 11.665C145.76 11.475 145.51 11.164 145.397 10.7957C145.283 10.4274 145.315 10.0297 145.485 9.68401L144.875 10.37C144.784 10.452 144.711 10.5522 144.661 10.6642C144.611 10.7762 144.585 10.8974 144.585 11.02C144.585 11.1426 144.611 11.2638 144.661 11.3758C144.711 11.4878 144.784 11.588 144.875 11.67V13.651C144.501 14.0048 144.017 14.2201 143.504 14.261C143.883 14.5971 144.126 15.059 144.19 15.561C144.19 18.153 146.096 18.84 147.467 20.746H148.077C148.077 20.746 148.687 16.857 148.687 15.561C148.723 13.9609 149.199 12.4016 150.062 11.054L150.06 11.055ZM155.243 24.625C155.951 20.3388 156.359 16.0082 156.462 11.665C155.853 11.055 155.243 11.055 154.562 10.365C153.875 11.665 154.562 13.642 153.875 14.865C153.875 15.551 153.875 16.238 153.266 16.238C153.266 14.255 153.875 11.664 153.875 9.07201C151.969 9.68201 153.875 12.959 151.969 12.959C151.283 12.273 152.656 10.367 151.969 9.07201C151.283 11.053 151.969 13.645 150.669 14.865C150.669 12.959 151.279 11.053 151.279 8.46501V7.77901C150.06 11.056 150.06 14.258 149.373 17.46C149.373 17.46 150.673 17.46 150.06 18.146C150.669 20.052 149.373 22.035 150.06 24.016C150.669 22.035 150.06 19.443 151.279 18.146V16.246C151.279 14.873 151.279 13.653 152.652 13.653C152.652 15.559 151.965 17.465 151.965 19.448V21.425C151.965 23.331 150.665 25.925 152.652 27.218C152.652 25.918 152.652 24.018 153.262 23.331C153.871 25.237 151.962 27.831 153.262 29.81C153.76 28.5779 153.968 27.2482 153.871 25.923C154.067 25.5191 154.169 25.076 154.169 24.627C154.169 24.178 154.067 23.7349 153.871 23.331C155.246 22.642 154.56 25.233 155.246 24.625H155.243ZM156.462 26.606C156.462 26.606 156.462 28.512 157.149 29.199C157.149 27.826 157.835 27.216 157.835 25.92C158.343 23.8 158.549 21.6186 158.445 19.441C157.835 21.422 157.835 24.014 157.145 25.234C155.845 25.234 156.458 22.642 156.458 22.642C157.311 20.6131 157.777 18.4424 157.831 16.242L158.441 15.555C158.046 14.9976 157.833 14.332 157.831 13.649C157.145 12.963 157.145 14.259 157.145 14.259C157.145 20.052 155.845 24.627 155.845 28.514C155.856 28.511 155.856 26.605 156.465 26.605L156.462 26.606ZM175.977 22.033C174.606 22.033 173.995 21.423 172.7 21.423C171.864 22.12 171.21 23.0095 170.794 24.015C170.589 24.3647 170.301 24.6587 169.955 24.8714C169.61 25.0841 169.218 25.2089 168.813 25.235C168.813 26.606 167.513 27.216 166.22 27.216C166.22 27.216 166.83 25.916 165.611 26.606C165.942 26.935 166.156 27.3636 166.22 27.826L164.92 29.807C164.325 30.2932 163.689 30.7281 163.02 31.107L160.427 32.407C159.056 33.707 157.835 34.388 156.463 35.607C156.608 37.0168 157.078 38.3737 157.836 39.571C159.742 39.571 160.428 38.2 161.648 38.2C161.648 37.59 161.648 36.98 162.334 36.98H163.021C164.602 35.4773 166.34 34.1483 168.204 33.016C169.423 31.11 171.404 29.205 173.387 26.616C173.389 26.5254 173.373 26.4353 173.339 26.3512C173.305 26.2672 173.255 26.1908 173.19 26.1267C173.126 26.0626 173.05 26.0121 172.966 25.9783C172.882 25.9445 172.792 25.9281 172.701 25.93C173.387 24.63 174.001 24.63 174.607 25.244C174.609 24.013 175.984 23.325 175.984 22.032L175.977 22.033ZM104.015 50.544C104.015 49.934 103.405 50.544 103.405 49.934L100.813 47.953C100.139 46.5399 99.2659 45.2303 98.2211 44.064C97.5351 42.164 96.2381 40.787 94.9421 38.881C94.2561 37.581 93.6421 35.602 92.3501 34.381C93.0361 33.695 93.0361 34.381 93.0361 34.381C93.6218 34.7154 94.2711 34.9232 94.9421 34.991C96.2421 35.6 96.8481 36.291 98.2211 36.291C98.2211 34.385 95.6291 34.991 94.9421 33.012C94.8603 33.1035 94.7602 33.1766 94.6482 33.2267C94.5361 33.2768 94.4148 33.3027 94.2921 33.3027C94.1694 33.3027 94.0481 33.2768 93.9361 33.2267C93.8241 33.1766 93.7239 33.1035 93.6421 33.012C92.8248 32.6459 91.945 32.4392 91.0501 32.403C89.7501 31.793 89.0691 30.42 87.8501 29.81C87.8501 31.11 88.4601 31.11 89.0701 31.793L91.0511 33.699C92.3511 36.291 93.6431 38.882 95.6251 40.788C96.8441 44.752 99.4361 47.344 102.025 50.546C102.036 50.542 103.408 51.152 104.018 50.542L104.015 50.544ZM105.996 49.934L105.31 50.544C104.624 49.934 104.01 48.561 103.404 48.561C102.718 46.661 101.423 45.969 100.812 44.75C100.814 44.6593 100.798 44.5691 100.764 44.4849C100.73 44.4007 100.68 44.3242 100.616 44.26C100.552 44.1958 100.475 44.1453 100.391 44.1114C100.307 44.0776 100.217 44.0611 100.126 44.063C99.7657 43.713 99.5252 43.258 99.4391 42.763C98.2201 42.154 98.8301 40.782 97.5391 40.782C97.5391 40.172 96.2391 39.562 96.8521 38.19C98.2251 36.97 100.131 38.876 102.037 38.876C101.427 37.576 100.131 36.284 99.4441 34.989H98.8351C98.4896 34.6379 98.2743 34.1792 98.2251 33.689C95.9095 33.1995 93.6931 32.3228 91.6691 31.096C91.0591 30.41 90.4491 30.41 89.7631 29.796C89.5759 29.44 89.3043 29.1353 88.972 28.9087C88.6397 28.6821 88.2569 28.5404 87.8571 28.496C87.1711 26.59 85.2651 24.609 83.8931 23.313V22.013C83.2831 21.403 82.6741 20.713 82.6741 20.713C80.6911 18.807 80.0821 16.213 78.1001 15.528C78.1001 15.528 79.4001 16.828 78.1001 17.434C78.7101 18.807 80.6921 20.026 80.6921 22.008C81.9921 22.008 81.9921 22.618 82.6751 23.989C80.6921 23.303 81.3021 22.008 80.0831 21.397C79.727 21.0057 79.2379 20.7611 78.7111 20.711C78.1011 18.805 77.4911 20.024 77.4911 18.805C76.1201 18.805 76.8051 20.024 77.4911 20.024L78.7111 22.007C79.4089 22.6288 80.0703 23.2902 80.6921 23.988L81.9921 25.894L83.8981 27.8C83.7256 27.803 83.5555 27.8418 83.3987 27.9139C83.2419 27.986 83.1018 28.0899 82.9872 28.2189C82.8726 28.348 82.7861 28.4994 82.7331 28.6636C82.68 28.8279 82.6617 29.0013 82.6791 29.173C83.8981 29.173 85.2711 29.173 85.2711 30.392C84.5851 31.765 83.8981 30.392 83.2881 29.782L82.6791 29.173C82.323 28.781 81.8334 28.536 81.3061 28.486C80.9784 28.1227 80.7661 27.6702 80.6961 27.186C81.9961 26.576 81.9961 27.796 82.6791 28.486L81.3061 27.186C81.3061 25.205 80.0871 25.205 80.0871 23.986C78.8665 23.2301 77.9491 22.0707 77.4941 20.709C76.8081 21.395 77.4941 22.009 76.8081 22.009C76.8081 22.619 75.5081 22.009 75.5081 22.619C76.1181 24.6 78.1001 25.211 78.1001 27.192V26.582C78.1001 27.802 78.7101 27.802 78.7101 29.175C79.0943 29.5138 79.5732 29.7263 80.0821 29.784V30.394L81.3011 32.377H81.9871V32.986L82.6741 33.673C83.2831 34.359 83.2831 34.359 83.8931 34.359V34.969C84.9687 35.2933 85.8898 35.9973 86.4851 36.95C86.4851 36.95 87.1721 38.17 87.8571 38.17C87.1241 36.4387 86.0029 34.899 84.5801 33.67L82.6741 31.764C82.1584 31.7329 81.6718 31.514 81.3065 31.1487C80.9411 30.7833 80.7222 30.2968 80.6911 29.781C81.9911 29.172 82.6741 31.081 83.2831 31.764C83.7672 31.8344 84.2196 32.0467 84.5831 32.374C84.9338 32.7201 85.3928 32.9351 85.8831 32.983C86.2365 33.358 86.4514 33.8424 86.4921 34.356C87.1791 35.575 87.8641 35.575 87.8641 35.575L89.0841 36.948C89.4564 37.9788 89.6872 39.0552 89.7701 40.148C90.4561 40.148 91.0701 40.758 91.0701 42.131C91.6801 42.74 92.3701 43.35 93.0511 44.031C92.6911 43.6808 92.451 43.2258 92.3651 42.731C92.062 41.8076 91.6239 40.9342 91.0651 40.139C90.4551 38.839 89.7651 36.939 89.0841 36.252V35.565C89.0198 35.1028 88.8055 34.6746 88.4741 34.346C88.4741 32.973 87.1741 32.973 87.8641 31.754C87.8641 31.067 88.4741 32.364 88.4741 32.973C89.0841 32.973 89.0841 33.66 89.0841 33.66C89.0822 33.7506 89.0987 33.8407 89.1325 33.9248C89.1663 34.0089 89.2167 34.0852 89.2808 34.1493C89.3449 34.2134 89.4213 34.2639 89.5054 34.2977C89.5895 34.3315 89.6795 34.3479 89.7701 34.346C90.4561 35.565 91.0701 36.938 91.6761 38.158C92.0653 39.2775 92.5231 40.3719 93.0471 41.435C93.6571 42.122 94.2671 42.735 94.2671 43.341C95.6401 44.714 96.8591 46.62 98.2311 47.915V48.524C99.4501 49.211 99.4501 50.507 101.431 50.507L102.041 52.488H102.727L102.041 53.098C100.621 52.4771 99.3286 51.5982 98.2291 50.506C96.6005 48.8719 94.8686 47.3441 93.0441 45.932C92.5553 45.1396 91.8738 44.4839 91.0631 44.026C89.0821 42.126 88.4711 41.434 87.8631 40.139C85.8821 38.158 84.5861 36.939 82.6801 34.956C80.0881 32.364 76.8101 29.163 74.2181 26.57C73.5753 25.9169 72.9399 25.2566 72.3121 24.589H70.3301C69.7201 24.589 70.3301 25.889 69.7201 25.889L69.0331 26.575V29.168C68.3471 29.777 68.3471 28.481 67.7331 29.168C66.5001 31.214 65.4301 33.354 64.5331 35.568C64.0946 36.442 63.6375 37.3065 63.1621 38.161C61.9421 40.142 62.5521 42.125 60.5701 42.125C60.4015 41.9361 60.3083 41.6917 60.3083 41.4385C60.3083 41.1853 60.4015 40.9409 60.5701 40.752C57.3811 39.1318 54.3655 37.1907 51.5701 34.959C48.9781 32.367 46.3871 30.385 45.0141 27.183H44.4051L43.7951 26.573C43.7951 25.202 43.1091 25.202 42.4221 24.592C42.3741 24.1015 42.1587 23.6424 41.8121 23.292C41.777 22.7982 41.56 22.335 41.2031 21.992V21.382H41.8121C43.1121 21.382 43.7951 20.009 45.7011 20.009L46.3871 19.4C45.7011 20.009 46.3871 20.009 46.3871 20.009L46.9971 19.4C47.4877 19.352 47.9467 19.1366 48.2971 18.79C49.5971 18.103 50.2031 17.417 52.1841 17.417L52.7941 15.511C53.4801 16.198 54.1671 15.511 54.1671 14.825C54.7761 14.825 54.7761 15.511 55.3861 14.825C56.0731 14.215 56.7591 14.215 57.3691 13.605C57.542 13.7765 57.7756 13.8727 58.0191 13.8727C58.2626 13.8727 58.4962 13.7765 58.6691 13.605C58.2772 13.2496 58.0322 12.7607 57.9821 12.234C59.9651 9.03401 61.9461 7.73401 63.8521 5.83401C65.7581 4.46101 67.7391 -1.33199 70.9411 1.26001C71.6281 0.651007 72.3141 -0.0399933 72.9241 -0.0399933C73.2598 0.339128 73.7218 0.583293 74.2241 0.647007H74.9101C75.5201 1.25601 75.5201 1.86601 76.1301 1.86601C76.1542 2.22189 76.3063 2.55703 76.5583 2.80944C76.8104 3.06185 77.1453 3.21444 77.5011 3.23901V3.84801C78.7211 5.14801 79.4071 6.44101 80.7011 7.04801L81.3111 7.73501C81.9971 9.03501 82.6841 9.03501 82.6841 9.03501C83.2931 11.627 81.9971 11.627 81.9971 12.922C83.2971 14.222 85.2761 15.514 86.4971 17.422C87.3069 18.1613 87.9784 19.039 88.4801 20.014C89.7801 20.701 90.4611 21.387 90.4611 22.607C91.6811 23.293 92.3671 23.978 92.3671 25.199C92.7777 25.2384 93.1706 25.386 93.5054 25.6269C93.8403 25.8678 94.1052 26.1932 94.2731 26.57C95.6461 27.79 96.8651 28.476 97.5521 30.382C98.6782 30.9367 99.5895 31.8479 100.144 32.974C100.536 33.3304 100.78 33.8199 100.83 34.347C101.44 35.566 102.736 36.253 103.422 36.939C103.422 36.939 103.422 38.159 104.032 38.159C104.073 38.6722 104.288 39.156 104.642 39.53L106.013 41.436C106.623 41.436 106.623 42.123 106.623 42.123L108.606 44.023C108.952 44.3738 109.167 44.8327 109.215 45.323L108.606 45.933H107.233C106.623 45.323 106.623 44.027 105.327 44.027C105.357 44.4309 105.494 44.8196 105.722 45.1542C105.95 45.4888 106.262 45.7574 106.627 45.933V47.916C106.27 47.5731 106.053 47.1099 106.017 46.616C104.646 45.316 103.425 44.71 102.74 43.337V42.727C102.74 42.727 101.44 42.727 102.054 42.118C102.74 40.745 102.74 42.727 104.035 42.118C104.645 41.431 102.735 41.431 102.735 41.431C101.435 40.131 100.143 38.839 98.2351 38.839C99.4541 42.118 102.735 43.339 104.028 47.301C104.847 48.0445 105.516 48.9375 105.999 49.932L105.996 49.934ZM68.3381 3.28101C68.3361 3.19031 68.3524 3.10015 68.3862 3.01594C68.4199 2.93173 68.4703 2.85522 68.5344 2.79103C68.5985 2.72684 68.675 2.67628 68.7591 2.64242C68.8433 2.60856 68.9334 2.59209 69.0241 2.59401C68.3411 2.59201 67.7311 3.27901 68.3411 3.27901L68.3381 3.28101ZM67.1191 5.18701C67.7281 5.18701 67.7281 5.18701 68.3381 4.50001C68.0096 4.16863 67.5813 3.95432 67.1191 3.89001V5.18701ZM64.5261 7.08701C65.1361 8.46001 67.1191 7.08701 66.4321 5.86801C65.1391 5.87001 65.1391 6.48001 64.5291 7.08901L64.5261 7.08701ZM60.5631 29.195C61.2491 27.212 60.5631 25.231 59.9531 23.325C59.9561 24.625 60.5661 27.215 60.5661 29.198L60.5631 29.195ZM59.3431 14.253C59.4236 14.2544 59.5035 14.2395 59.5782 14.2093C59.6528 14.1792 59.7206 14.1343 59.7775 14.0774C59.8344 14.0204 59.8793 13.9527 59.9094 13.878C59.9396 13.8034 59.9545 13.7235 59.9531 13.643C59.8727 13.6421 59.793 13.6573 59.7185 13.6877C59.6441 13.7182 59.5766 13.7634 59.52 13.8204C59.4634 13.8775 59.4188 13.9454 59.3889 14.0201C59.3591 14.0947 59.3445 14.1746 59.3461 14.255L59.3431 14.253ZM59.3431 27.213C59.9531 26.603 59.3431 25.232 58.6571 24.013C57.9731 25.233 58.6601 27.215 59.3461 27.215L59.3431 27.213ZM56.7541 23.325V25.917C57.3641 25.917 57.3641 26.603 57.3641 26.603C57.9731 24.622 57.3641 22.64 56.7541 20.734V23.325ZM54.7711 29.195H56.0711V27.215C56.0711 27.215 55.3841 27.825 55.3841 27.215C55.3846 27.9227 55.1709 28.614 54.7711 29.198V29.195ZM63.1571 35.595C61.9371 34.376 60.5651 33.695 59.3451 32.395C59.3451 32.395 57.3641 31.785 57.3641 31.095C56.0641 31.095 55.3811 30.409 54.1641 29.795L52.7911 27.814C52.7911 27.204 54.1641 27.204 54.1641 27.204C52.7911 25.904 52.7911 27.204 52.7911 27.204C51.5711 27.204 50.1991 26.594 50.1991 25.223C48.9791 25.223 48.9791 24.613 48.9791 24.613C48.385 23.7003 47.7228 22.8339 46.9981 22.021C45.0151 21.411 44.4061 22.021 43.1111 22.021C43.1111 23.321 44.4111 24.002 44.4111 25.221C44.5332 25.0774 44.685 24.9621 44.856 24.883C45.027 24.8039 45.2132 24.763 45.4016 24.763C45.5901 24.763 45.7762 24.8039 45.9473 24.883C46.1183 24.9621 46.2701 25.0774 46.3921 25.221C46.0194 25.5905 45.7783 26.0722 45.7061 26.592C47.4668 28.8968 49.431 31.0388 51.5751 32.992C53.2048 34.1584 54.7125 35.4865 56.0751 36.956H57.3751C57.7062 37.285 57.9202 37.7136 57.9841 38.176C58.6711 38.176 59.3561 39.547 61.2631 39.547C61.9371 38.193 62.5481 36.973 63.1581 35.6L63.1571 35.595ZM63.1571 28.506C63.8431 24.619 61.9371 20.044 61.9371 14.861C61.9371 14.861 61.9371 12.955 60.5661 12.955C60.8965 13.3057 61.0804 13.7692 61.0804 14.251C61.0804 14.7328 60.8965 15.1963 60.5661 15.547C60.6568 15.5451 60.747 15.5616 60.8311 15.5954C60.9153 15.6293 60.9917 15.6798 61.0558 15.744C61.1199 15.8082 61.1704 15.8847 61.2041 15.9689C61.2378 16.0531 61.2542 16.1433 61.2521 16.234C61.2521 18.826 61.9381 20.734 61.9381 22.634C62.5481 22.634 63.1581 25.226 61.9381 25.226C61.2521 24.006 61.2521 21.414 60.5671 19.433C60.4514 21.6154 60.6829 23.8023 61.2531 25.912C61.9391 27.212 61.9391 27.818 62.5531 29.191C63.1631 28.504 61.9431 27.208 62.5531 26.598C63.8431 26.605 63.1581 27.825 63.1581 28.511L63.1571 28.506ZM63.8431 29.806C63.8431 29.806 63.8431 28.506 63.1571 28.506V29.806H63.8431ZM69.7131 17.457C69.0261 14.257 69.0261 11.057 68.3401 7.77601V8.46201C67.7301 11.054 69.0261 12.962 68.3401 14.862C67.1211 13.642 67.7301 11.05 67.1211 9.06901C66.4341 10.369 67.7301 12.269 67.1211 12.956C65.7481 12.956 67.1211 9.67901 65.1381 9.06901C65.6193 11.4259 65.824 13.8308 65.7481 16.235C65.4088 15.8507 65.1959 15.3714 65.1381 14.862C64.5281 13.642 65.1381 11.662 64.5281 10.362C63.8179 10.7141 63.1528 11.1506 62.5471 11.662C62.6403 16.0094 63.075 20.3427 63.8471 24.622C64.5331 25.232 63.8471 22.641 63.8471 22.641C65.1471 23.327 64.5331 24.622 65.1471 25.918C65.1471 27.218 65.7571 28.51 65.7571 29.805C67.1301 27.824 65.1471 25.232 65.7571 23.326C67.1301 24.012 66.4431 25.918 66.4431 27.213C68.3491 25.913 67.1301 23.326 67.1301 21.42C67.1876 20.9107 67.4002 20.4314 67.7391 20.047C67.1301 17.455 66.4391 15.547 66.4391 13.647C67.7391 13.647 67.7391 14.867 67.7391 15.553V18.145C69.0391 19.445 69.0391 22.034 69.0391 24.015C69.7261 22.034 68.3531 20.051 69.0391 18.145C69.037 18.0552 69.0529 17.9658 69.0859 17.8822C69.1189 17.7986 69.1683 17.7225 69.2313 17.6584C69.2942 17.5942 69.3693 17.5434 69.4523 17.5088C69.5352 17.4742 69.6233 17.4566 69.7131 17.457ZM75.5061 14.865C75.1746 14.5362 74.9602 14.1075 74.8961 13.645V11.664C74.8961 11.054 74.2101 11.054 74.2101 11.054C73.5231 10.368 74.2101 9.07301 73.5231 9.07301C73.5231 9.07301 74.2101 11.054 72.9141 11.665C72.9141 10.365 72.3041 8.46501 72.3041 7.09101L71.6181 8.46401C70.9311 9.68401 72.3041 11.056 71.6181 11.664C71.3548 11.4119 71.1552 11.1008 71.0358 10.7563C70.9163 10.4119 70.8804 10.044 70.9311 9.68301C70.3221 11.054 71.6181 12.96 70.9311 14.256C70.6274 13.6309 70.422 12.9627 70.3221 12.275C69.7121 11.055 70.3221 9.68301 69.7121 8.46301C69.0251 9.07301 69.7121 10.369 69.7121 10.369C69.7121 12.275 70.3221 13.646 70.3221 15.552C70.4195 16.8627 70.6232 18.1633 70.9311 19.441L71.6181 20.741C72.9181 18.835 74.8951 18.148 74.8951 15.556C74.8859 15.4697 74.8949 15.3824 74.9213 15.2997C74.9478 15.2171 74.9912 15.1408 75.0488 15.0759C75.1064 15.011 75.1769 14.9587 75.2558 14.9226C75.3347 14.8865 75.4203 14.8672 75.5071 14.866L75.5061 14.865ZM82.6721 15.551V16.238C83.8911 16.847 84.5781 18.138 85.2641 18.83C86.0548 19.5682 86.7011 20.4472 87.1701 21.422C89.0761 22.642 90.4471 24.622 91.6701 25.922C93.0411 25.236 91.0601 24.622 91.0601 24.622C88.4681 20.735 84.5811 17.456 81.9881 14.254C81.9841 14.255 81.9831 15.551 82.6721 15.551ZM96.2401 30.417C95.7363 29.8327 95.3002 29.1933 94.9401 28.511L93.0341 27.825C92.248 27.6712 91.5443 27.2378 91.0531 26.605C89.7531 24.624 87.8531 23.328 86.4791 21.422C85.2601 20.736 84.5791 19.441 83.8871 18.83L82.6681 17.457C82.478 17.31 82.3193 17.1264 82.2013 16.917C82.0833 16.7076 82.0085 16.4768 81.9811 16.238C80.6811 14.865 80.6811 14.255 79.3891 14.255C80.0761 16.238 81.9811 16.847 82.6681 19.44C82.6681 19.44 83.8871 20.74 83.8871 21.421C84.3734 22.2161 85.0564 22.8726 85.8701 23.327V24.013C87.1701 25.919 88.4621 27.213 89.7581 29.198C92.3501 30.417 94.9411 31.79 97.5341 33.009C98.2241 31.789 96.8521 31.102 96.2421 30.417H96.2401ZM164.24 100.398C163.63 102.381 161.04 102.381 159.74 103.677C156.461 104.363 151.964 103.677 149.372 102.99L147.466 101.771C146.934 100.606 146.269 99.5052 145.485 98.492C145.2 97.5612 144.761 96.6849 144.185 95.9C143.826 95.2173 143.389 94.5779 142.885 93.994C142.304 92.3257 141.426 90.7763 140.293 89.421C139.683 88.121 138.31 86.828 137.7 85.532C136.934 85.1314 136.255 84.5809 135.706 83.9132C135.156 83.2455 134.746 82.4742 134.5 81.645C134.414 81.6536 134.328 81.6443 134.246 81.6177C134.163 81.5911 134.088 81.5477 134.023 81.4904C133.959 81.4331 133.907 81.363 133.871 81.2846C133.835 81.2063 133.816 81.1213 133.814 81.035C132.514 80.349 132.514 79.664 132.514 79.054C131.214 79.054 131.214 78.444 130.533 77.754C129.313 76.454 127.333 75.162 126.033 73.254C125.346 73.254 125.346 72.567 124.733 71.881C124.242 71.248 123.538 70.8148 122.751 70.662C122.318 69.2882 121.396 68.1213 120.159 67.383H118.939C117.652 66.2648 116.547 64.9535 115.662 63.496C113.07 62.196 111.162 60.296 109.182 58.922V58.312C109.263 58.3134 109.342 58.2985 109.417 58.2684C109.491 58.2383 109.559 58.1935 109.616 58.1367C109.673 58.0799 109.718 58.0122 109.748 57.9377C109.778 57.8632 109.793 57.7834 109.792 57.703H111.165C111.165 58.312 111.775 58.922 112.384 59.603C114.976 60.903 116.348 63.492 118.94 64.788C119.55 65.474 120.16 66.694 121.533 66.694C122.142 68.065 124.125 69.286 125.344 70.658V71.267L126.031 71.877C126.484 72.3163 126.917 72.7743 127.331 73.25C127.94 73.86 129.312 74.469 129.923 75.156V75.842C129.923 75.842 131.223 76.452 131.223 77.061C131.221 77.1517 131.237 77.2419 131.271 77.3261C131.305 77.4103 131.355 77.4868 131.419 77.551C131.484 77.6152 131.56 77.6657 131.644 77.6996C131.728 77.7335 131.818 77.7499 131.909 77.748C131.915 78.0777 132.043 78.3936 132.268 78.6339C132.494 78.8743 132.801 79.0219 133.13 79.048C131.224 75.161 128.63 72.568 126.041 69.29C124.584 68.4354 123.271 67.3554 122.152 66.09C119.56 64.109 116.969 61.516 114.377 59.61C113.936 58.781 113.241 58.1151 112.394 57.71C111.785 56.337 112.394 56.337 112.394 56.337C113.787 57.0812 114.928 58.2216 115.673 59.614C115.673 59.614 117.579 60.301 117.579 60.914C118.265 61.523 118.95 61.523 119.56 62.214L121.543 64.12L122.762 65.491H123.448C124.476 66.4139 125.351 67.494 126.041 68.691C128.51 70.7803 130.689 73.1903 132.52 75.857C134.502 77.763 135.72 81.04 137.703 82.946L137.094 81.04C135.97 79.9079 135.088 78.5593 134.501 77.076C134.079 76.7885 133.733 76.402 133.494 75.9502C133.255 75.4985 133.13 74.9951 133.13 74.484C131.939 73.4701 131.043 72.1535 130.538 70.673C130.538 69.3 131.909 70.673 133.13 70.673C131.909 68.69 129.318 67.394 127.337 66.099C124.744 63.507 121.544 61.525 118.265 58.933C117.011 58.2955 115.896 57.4143 114.986 56.341L113.767 55.121L114.377 54.435C116.816 56.7721 119.414 58.9373 122.152 60.915C123.391 61.542 124.482 62.4256 125.352 63.507V62.897C123.446 61.524 122.76 60.305 121.541 59.618C120.168 57.718 118.262 56.341 116.967 54.435C115.672 52.529 118.267 54.435 118.267 53.749C119.567 55.12 120.173 56.341 121.546 57.026C122.155 58.326 123.446 58.932 124.138 60.915C125.357 60.305 125.357 61.524 126.044 61.524C127.344 62.897 127.944 63.507 129.321 64.803C131.227 66.103 132.521 68.08 134.504 69.303C135.114 69.989 136.41 71.284 137.097 71.895C137.336 71.9222 137.567 71.9969 137.776 72.1148C137.985 72.2326 138.169 72.3911 138.316 72.581C140.299 75.174 143.501 77.081 146.092 79.061C146.624 80.2034 147.542 81.1213 148.684 81.653C149.37 82.263 149.37 82.263 150.056 82.953C151.275 84.253 151.956 85.545 153.867 86.232C154.554 87.451 155.85 88.138 156.459 89.432C157.173 90.6119 158.046 91.6886 159.052 92.632C159.444 92.9876 159.688 93.4765 159.738 94.003L162.33 96.595C163.022 97.806 164.24 98.492 164.24 100.398ZM138.321 84.237C138.321 84.847 139.008 84.847 139.008 84.847L138.321 84.237ZM148.689 99.788C147.468 97.807 146.783 95.215 144.877 93.995C145.256 94.808 145.464 95.6903 145.487 96.587C146.171 97.3012 146.624 98.2048 146.787 99.18C147.117 99.1852 147.432 99.3129 147.673 99.5383C147.913 99.7637 148.061 100.071 148.087 100.399C148.69 100.398 148.69 100.398 148.69 99.787L148.689 99.788ZM163.021 99.788C161.038 96.588 158.447 94.605 156.464 91.403C155.855 92.623 157.837 93.995 157.837 93.995L158.447 94.605V95.905C157.147 95.905 157.147 93.999 155.855 93.313L154.555 91.407C153.868 90.721 153.255 90.034 153.255 89.426L152.645 88.816C152.645 88.13 151.958 87.443 151.272 86.833C151.273 86.7526 151.258 86.6728 151.228 86.5983C151.198 86.5238 151.153 86.4561 151.096 86.3993C151.039 86.3425 150.971 86.2977 150.897 86.2676C150.822 86.2375 150.743 86.2227 150.662 86.224C150.655 85.8744 150.518 85.54 150.278 85.2861C150.037 85.0322 149.711 84.8771 149.362 84.851C150.049 88.13 151.268 90.034 151.953 92.627C153.253 93.313 153.859 94.608 154.546 95.219C155.846 96.59 156.446 97.2 157.138 97.811C158.438 97.811 157.824 96.591 157.824 96.591C158.174 96.5546 158.527 96.5966 158.858 96.714C159.189 96.8315 159.49 97.0213 159.738 97.2698C159.986 97.5183 160.176 97.8191 160.294 98.1503C160.411 98.4814 160.453 98.8346 160.416 99.184C160.204 99.4052 159.95 99.5813 159.668 99.7016C159.387 99.8218 159.084 99.8838 158.778 99.8838C158.471 99.8838 158.168 99.8218 157.887 99.7016C157.605 99.5813 157.351 99.4052 157.139 99.184C157.067 98.6633 156.826 98.1808 156.452 97.811C156.136 97.4627 155.701 97.2452 155.233 97.201C154.547 96.591 154.547 96.591 154.547 95.901C154.547 95.211 153.247 93.995 151.954 93.995C151.954 92.624 151.268 92.014 150.654 92.014C150.654 90.031 150.045 90.031 150.045 88.127C149.576 87.8898 149.193 87.513 148.947 87.0486C148.701 86.5842 148.606 86.055 148.673 85.534C148.502 85.361 148.406 85.1274 148.406 84.884C148.406 84.6406 148.502 84.407 148.673 84.234C146.78 82.2654 144.848 80.3341 142.879 78.441C141.579 77.755 139.679 75.849 137.694 76.46C138.304 77.76 138.994 79.052 139.677 80.347C140.287 81.647 141.583 82.253 142.269 83.626C143.49 86.826 146.081 88.809 147.452 92.626C149.434 94.9074 150.961 97.5464 151.952 100.401L150.652 99.182C149.352 97.199 148.671 96.589 148.06 94.608L146.784 92.625C145.484 91.405 144.878 88.813 143.507 87.44C142.897 85.534 141.601 84.848 140.914 82.94C139.921 82.2151 139.047 81.3407 138.322 80.348C137.642 79.1545 137.227 77.829 137.103 76.461C137.431 76.1293 137.86 75.9149 138.322 75.851C137.103 73.259 134.51 72.572 132.529 71.277L133.139 73.26L133.825 73.87C134.164 74.4869 134.396 75.1567 134.511 75.851L135.121 76.461L135.731 77.07V77.757C136.087 78.1487 136.577 78.3934 137.104 78.443L137.713 80.349C139.442 83.4754 140.97 86.709 142.287 90.03C145.487 92.623 148.687 95.9 149.376 101.084C150.063 101.084 150.063 101.084 150.063 101.771C151.963 102.381 153.874 101.771 155.857 101.771C156.466 101.771 155.247 101.084 155.247 101.084C154.561 99.784 153.266 99.184 152.655 98.492V97.806C152.655 97.196 151.968 97.196 151.968 97.196C151.91 96.6922 151.665 96.2284 151.282 95.896C151.282 95.896 150.672 95.21 150.063 94.596C149.376 93.296 148.08 91.396 147.47 90.022L146.784 89.413V88.803C146.434 88.443 145.979 88.2029 145.484 88.117L144.874 86.817V86.208C144.053 85.2202 143.385 84.1149 142.892 82.929C142.892 82.929 141.592 81.023 142.892 80.337C143.502 82.929 145.484 85.52 146.779 88.113L147.465 88.799C148.075 90.018 148.686 90.018 148.686 90.018L149.372 92.001C150.672 94.593 153.261 97.184 155.242 99.776C155.852 100.386 156.461 101.076 157.148 101.759H158.448V102.369C159.748 102.369 160.429 101.759 162.335 101.069C161.649 100.398 163.022 100.398 163.022 99.787L163.021 99.788Z" fill="#CCCCCC"/>
<path d="M66.1691 81.79L66.7791 80.49L67.3891 79.804C67.3871 79.8947 67.4034 79.9848 67.4372 80.0689C67.4709 80.1531 67.5214 80.2295 67.5855 80.2936C67.6496 80.3578 67.7261 80.4082 67.8102 80.442C67.8944 80.4757 67.9845 80.4921 68.0751 80.49V81.177C68.0751 81.177 68.0751 82.396 67.3891 82.396C67.0763 83.1097 66.6657 83.7765 66.1691 84.377L64.1881 84.987C62.9725 85.5457 61.6336 85.7822 60.3001 85.674C58.5002 85.6058 56.7343 85.1631 55.1151 84.374C53.2091 83.765 51.8381 83.074 51.2281 81.782C49.9281 81.173 49.2451 79.801 48.0281 77.895C47.3421 76.595 46.6551 75.303 46.6551 75.303C46.0451 72.024 45.4361 70.803 45.4361 69.433V64.933C45.4361 63.027 45.4361 61.046 46.0451 59.75C46.0451 57.844 46.6551 56.471 46.6551 55.25C47.3421 53.877 48.0281 52.657 48.6381 51.286H47.3381C46.0381 51.286 44.7451 51.972 43.4491 51.972C42.1491 52.658 40.8571 52.658 39.5611 53.272L36.9691 55.864C36.9691 55.864 35.0631 57.847 33.6901 59.064C32.4711 60.437 30.4901 61.047 29.1901 62.343C27.2841 63.643 25.9131 64.935 24.0071 65.62C22.1626 66.7186 20.1915 67.5893 18.1371 68.213C16.5184 68.9906 14.7498 69.4066 12.9541 69.432C11.1614 69.3788 9.39782 68.9641 7.76914 68.213C6.1184 67.6613 4.75002 66.4839 3.95814 64.934C2.69179 63.7048 1.79404 62.1462 1.36614 60.434C0.594362 58.5644 0.13101 56.582 -0.00585938 54.564C0.130924 52.5463 0.594281 50.5642 1.36614 48.695C2.58514 46.789 3.95814 44.883 5.17714 42.9C6.80578 41.2662 8.53768 39.7388 10.3621 38.327C12.1926 37.0441 14.1613 35.9708 16.2311 35.127C18.4743 33.9634 20.8574 33.0922 23.3221 32.535C25.3031 32.535 27.2851 31.925 29.1911 31.925C30.769 31.952 32.3154 32.3709 33.6911 33.144C34.8939 33.8597 35.9964 34.7317 36.9701 35.737L38.2701 38.329C38.5757 39.1657 38.7805 40.0358 38.8801 40.921V42.294H37.6601C36.9741 41.607 36.2871 40.311 35.6781 39.702C35.0681 39.015 33.6951 39.015 32.4781 38.329C31.1051 37.719 29.8861 37.719 27.2931 37.719C25.0908 37.6457 22.8881 37.8506 20.7371 38.329C18.8371 39.015 16.9261 39.702 14.9441 40.31C12.9631 41.61 11.0561 42.293 9.76114 43.51C8.78681 44.4822 7.71443 45.3508 6.56114 46.102C4.57814 48.695 3.28214 50.066 3.28214 51.287C2.66603 52.2977 2.22643 53.4058 1.98214 54.564C2.08875 56.3582 2.52965 58.1167 3.28214 59.749L4.58214 61.049C4.9218 61.7663 5.35931 62.433 5.88214 63.03C6.72562 63.3124 7.59327 63.5165 8.47414 63.64C9.53697 63.9784 10.6377 64.1833 11.7511 64.25C13.7316 64.1302 15.6836 63.7191 17.5441 63.03C19.5746 62.4064 21.5208 61.5359 23.3391 60.438C25.2916 59.75 27.0634 58.6298 28.5221 57.161C30.0256 56.6135 31.3822 55.7261 32.4861 54.568C31.7991 54.568 30.5031 55.255 29.2071 55.255H26.6151C25.9043 55.5604 25.1388 55.7179 24.3651 55.7179C23.5915 55.7179 22.826 55.5604 22.1151 55.255C20.7421 54.568 19.5231 53.882 19.5231 53.882C17.5401 52.662 16.9311 51.976 16.9311 50.682C16.2441 50.072 16.2441 49.382 16.2441 48.09V46.79L16.9311 47.476C17.5401 48.086 17.5401 48.696 18.8371 48.696C19.6403 49.1122 20.5253 49.3464 21.4291 49.382C23.3436 49.8848 25.3193 50.1158 27.2981 50.068H32.4831C33.7021 50.068 35.0751 49.382 36.2941 49.382C37.4316 49.4951 38.5764 49.2556 39.5731 48.696C42.3536 46.2996 44.9528 43.7005 47.3491 40.92C48.6491 39.701 49.2491 38.328 50.6261 37.72C51.2361 36.42 52.5321 35.739 53.2181 34.52C53.9553 33.7357 54.5952 32.8654 55.1241 31.928C55.1964 31.4076 55.4374 30.9252 55.8101 30.555C55.8101 29.946 55.8101 29.946 56.4201 30.555C57.1328 30.9332 57.7984 31.3941 58.4031 31.928L60.3091 33.834C60.8088 34.8516 61.0447 35.9784 60.9951 37.111V39.017C60.3091 39.704 60.3091 40.317 59.6221 40.923C59.0121 42.296 59.0121 42.904 58.4031 44.202C57.7161 44.888 57.7161 45.502 57.0301 46.102L62.2131 45.493H64.1961V44.883H65.4961V45.493C65.4099 45.9877 65.1699 46.4426 64.8101 46.793C63.5901 46.793 62.9041 47.479 61.6101 48.093H59.6271L57.7211 48.703C57.0351 48.703 56.4211 49.389 55.8151 49.389L55.1291 50.689C54.0281 52.5049 53.1574 54.4509 52.5371 56.482C51.9918 57.4841 51.7533 58.6244 51.8511 59.761C51.5708 60.679 51.1599 61.5519 50.6311 62.353C50.729 63.489 50.4904 64.6286 49.9451 65.63V67.536C49.9238 70.408 50.3627 73.2649 51.2451 75.998C51.7174 77.8959 52.6024 79.6663 53.8371 81.183C54.4471 82.402 55.8191 83.083 57.0371 83.775C57.6498 84.2541 58.3143 84.663 59.0181 84.994H61.0011C61.3438 85.0304 61.6903 84.995 62.0185 84.89C62.3466 84.7849 62.6493 84.6126 62.9071 84.384L64.2071 83.775L66.1881 83.088L66.1691 81.79ZM49.9321 47.49C49.9321 47.49 50.6181 46.804 51.2321 46.117C51.2321 45.508 51.8421 44.898 51.8421 44.217C52.5281 43.53 52.5281 42.311 53.2131 41.624C53.5597 41.2736 53.7751 40.8145 53.8231 40.324C54.9574 38.2895 56.2575 36.3519 57.7101 34.531L44.0621 48.09L48.0261 47.48L49.9321 47.49Z" fill="white"/>
<path d="M72.5732 70.123C73.2592 70.123 73.9452 69.437 75.1652 68.823C75.8522 67.523 77.1482 66.842 78.4442 65.623C79.7442 64.252 81.0362 62.346 82.3322 61.05C83.6322 59.067 84.9242 57.85 86.2192 55.865L86.9062 55.256H87.5152V55.865C87.4669 56.3553 87.252 56.8141 86.9062 57.165C86.8845 57.4166 86.8125 57.6613 86.6945 57.8846C86.5765 58.1079 86.4149 58.3053 86.2192 58.465C85.5332 59.765 84.3192 60.446 83.6272 61.665C82.7459 63.1471 81.6404 64.4839 80.3502 65.628C79.7402 66.848 78.4442 67.534 77.1502 68.828C76.2456 69.8751 75.1621 70.7531 73.9502 71.421C73.1531 71.9764 72.2801 72.4143 71.3582 72.721C70.9881 72.3479 70.5058 72.1065 69.9852 72.034L68.7652 71.425C68.0792 70.815 68.0792 70.125 67.3942 69.442V66.242C66.1742 67.542 65.4882 68.834 64.8022 69.442C64.1922 70.128 62.8962 70.815 62.2092 71.425L60.3092 72.725C60.2185 72.7269 60.1283 72.7104 60.0441 72.6766C59.9599 72.6427 59.8834 72.5922 59.8192 72.528C59.755 72.4639 59.7045 72.3874 59.6707 72.3032C59.6368 72.2189 59.6203 72.1288 59.6222 72.038C58.4032 72.038 57.7162 71.429 57.0302 71.429C56.4202 70.819 56.4202 70.129 55.8102 69.446V66.854C55.7132 65.5531 55.9221 64.2476 56.4202 63.042C57.0302 61.671 57.7202 60.45 58.4032 59.078C59.6222 57.859 60.3092 56.486 61.6032 55.267C63.0434 54.3577 64.3513 53.2543 65.4902 51.988C66.471 51.1777 67.578 50.5338 68.7672 50.082C69.3012 49.6346 69.9767 49.3915 70.6732 49.396H73.2652C73.2652 49.396 74.5652 50.082 74.5652 50.696L75.8652 51.996C77.7652 48.719 79.1422 46.126 80.3652 43.534C81.7362 42.315 81.7362 40.942 82.3472 40.334C82.8202 39.1617 83.4909 38.0793 84.3302 37.134C84.9392 35.763 84.9392 35.153 85.5492 34.542V32.561L86.2352 31.951C86.5783 31.9038 86.9276 31.9342 87.2575 32.0397C87.5873 32.1453 87.8893 32.3234 88.1412 32.561C88.1412 32.561 88.8282 33.17 89.5142 33.861C89.5142 35.161 90.1242 35.767 90.1242 37.748C90.1242 38.358 89.5142 39.048 88.8242 40.34C88.1342 41.632 87.5242 43.54 86.9182 44.914C85.5452 46.82 84.9352 48.114 83.6392 50.097C82.304 51.8801 81.2027 53.827 80.3622 55.89C79.1422 57.873 77.7692 59.779 77.1622 61.075C76.2154 62.6798 75.1455 64.2087 73.9622 65.648C73.2752 66.868 73.2752 68.241 72.5902 68.848L72.5732 70.123ZM60.9862 70.123C61.5962 70.123 62.2052 69.437 63.5782 68.823C64.5669 67.8636 65.4371 66.7893 66.1702 65.623C67.3902 64.252 68.7622 63.031 69.9822 61.66C70.6682 60.44 71.9642 58.46 72.5742 57.16C72.9244 56.454 73.3879 55.8101 73.9462 55.254C74.5562 53.271 74.5562 53.271 73.9462 53.271C73.2515 53.3417 72.5776 53.549 71.9632 53.881C71.257 54.7256 70.3716 55.4023 69.3712 55.862C68.849 56.8236 68.1807 57.6983 67.3902 58.455C65.4842 60.436 64.7982 61.655 63.5782 63.028C62.8922 64.248 62.2052 65.62 61.5962 66.84C61.1976 67.4236 60.9849 68.1142 60.9862 68.821V70.121V70.123Z" fill="white"/>
<path d="M88.125 49.389L88.812 48.703C89.498 48.703 90.112 49.389 90.712 49.389C91.423 49.7409 92.0888 50.1774 92.695 50.689C93.1822 51.4606 93.397 52.3731 93.305 53.281C93.4069 54.3838 93.1954 55.493 92.695 56.481C91.9276 57.506 91.2634 58.6043 90.712 59.76C89.9586 60.7781 89.3213 61.8773 88.812 63.037C88.4415 63.713 88.0061 64.3513 87.512 64.943C86.212 66.849 86.212 67.535 86.212 67.535L85.526 68.835C86.4631 68.5661 87.3421 68.1252 88.118 67.535C89.491 66.849 90.101 65.629 91.397 64.258C92.8593 62.9101 94.1637 61.4004 95.285 59.758C96.585 58.458 97.877 56.479 99.172 55.258C100.261 53.6516 101.133 51.9082 101.765 50.073L103.065 47.481C103.065 44.889 103.065 43.517 102.455 42.907C101.757 42.2853 101.094 41.6238 100.472 40.926C99.863 40.316 99.172 39.707 99.172 39.707H96.58V39.02L97.266 38.334C98.3773 38.237 99.4921 38.476 100.466 39.02C101.766 39.707 102.449 40.32 103.666 40.926C104.663 41.9069 105.535 43.0084 106.259 44.205C107.63 45.505 107.63 46.797 107.63 48.705C107.746 50.3456 107.259 51.972 106.259 53.278C105.649 54.578 104.353 55.87 103.059 57.852C101.385 59.192 99.8521 60.6998 98.485 62.352C96.858 63.4928 95.3503 64.7951 93.985 66.239C92.5938 67.184 91.2926 68.2552 90.098 69.439C89.3779 69.8047 88.7108 70.2666 88.115 70.812L87.505 71.422L85.523 72.722C84.913 72.722 84.304 72.035 83.617 72.035C83.2382 71.3642 82.8033 70.7266 82.317 70.129C82.317 69.443 81.707 68.829 81.707 68.229V64.265C82.2469 63.4702 82.6586 62.5956 82.927 61.673C83.613 60.453 84.3 59.767 84.908 58.473C85.6981 57.5886 86.1574 56.4578 86.208 55.273C87.0298 54.377 87.4926 53.2097 87.508 51.994C88.0005 51.2197 88.2179 50.302 88.125 49.389Z" fill="white"/>
<path d="M125.098 55.868H125.785C125.785 55.259 125.785 55.259 126.394 55.868V57.168C125.785 57.168 125.785 57.854 125.094 58.468C124.069 59.3931 123.194 60.4728 122.502 61.668C121.202 63.039 119.91 64.26 118.614 65.631C117.314 66.851 116.023 67.537 114.725 68.831C113.684 69.7586 112.59 70.6244 111.448 71.424C110.285 72.1257 108.985 72.5691 107.636 72.724L105.655 71.424C105.171 71.354 104.718 71.1417 104.355 70.814C103.508 69.5657 103.055 68.0917 103.055 66.583C103.055 65.0743 103.508 63.6003 104.355 62.352C105.041 61.052 105.655 59.76 106.261 58.465C107.169 57.024 108.272 55.7153 109.538 54.576C110.224 53.276 111.444 52.67 112.816 51.984C113.235 51.1661 113.9 50.4996 114.716 50.078C115.662 49.7959 116.543 49.33 117.309 48.707L118.609 49.393C119.113 49.4515 119.577 49.6962 119.909 50.079C119.909 50.689 120.595 50.689 120.595 50.689C120.595 52.67 121.205 53.281 121.205 54.576L119.905 56.482C119.905 57.855 119.218 58.465 117.999 59.761C117.999 59.761 116.627 61.061 115.407 62.353C114.504 62.9328 113.638 63.5694 112.815 64.259C112.104 64.9606 111.202 65.4374 110.222 65.63C109.848 65.9839 109.364 66.1991 108.851 66.24L108.241 68.223C107.631 68.832 107.631 68.832 108.241 69.442H108.851C109.456 69.5258 110.071 69.4583 110.643 69.2455C111.215 69.0328 111.725 68.6814 112.128 68.223C113.871 67.5089 115.415 66.3839 116.628 64.944C118 63.644 119.907 62.352 121.202 61.057C122.505 59.07 123.798 57.851 125.098 55.868ZM117.323 54.568C117.232 54.5661 117.142 54.5826 117.058 54.6164C116.974 54.6503 116.897 54.7008 116.833 54.765C116.769 54.8292 116.718 54.9057 116.685 54.9899C116.651 55.0741 116.634 55.1643 116.636 55.255L115.417 56.474L114.044 57.847C113.434 58.457 112.825 59.066 112.825 59.753C111.363 61.217 110.243 62.9872 109.547 64.936C110.847 63.636 112.139 63.03 113.434 61.659C114.357 60.641 115.223 59.5727 116.027 58.459C116.353 57.7337 116.792 57.0644 117.327 56.476C117.537 56.2027 117.65 55.8675 117.649 55.523C117.648 55.1784 117.533 54.844 117.321 54.572L117.323 54.568Z" fill="white"/>
<path d="M132.871 72.715C132.073 72.2661 131.414 71.6068 130.965 70.809C130.116 69.4306 129.642 67.8535 129.592 66.235L130.279 64.935C130.279 64.249 130.964 63.635 130.964 63.029C131.574 61.658 131.574 61.048 132.183 60.437C132.542 59.7133 133.005 59.0459 133.556 58.456C134.166 56.473 135.462 55.256 136.756 53.271C136.756 53.271 136.146 53.271 135.456 54.571C134.235 55.26 133.129 56.1348 132.177 57.164C130.958 58.464 130.277 59.756 128.977 61.051C127.677 62.346 126.385 64.251 125.09 65.624C124.564 66.7522 123.926 67.8243 123.184 68.824C121.813 70.124 121.813 70.807 121.813 70.807C121.813 72.026 121.813 72.026 121.203 72.713L120.593 72.026L119.22 70.12C118.897 69.5318 118.69 68.8867 118.611 68.22V65.627C119.577 64.375 120.443 63.0501 121.203 61.664C121.203 61.664 122.503 59.758 123.185 58.464C123.85 57.2501 124.729 56.166 125.778 55.264C126.387 53.891 126.997 52.671 126.997 52.671C127.51 51.4152 127.744 50.0631 127.683 48.708L128.37 48.098C128.451 48.0968 128.531 48.1117 128.605 48.142C128.68 48.1722 128.747 48.2171 128.804 48.274C128.861 48.3309 128.906 48.3987 128.936 48.4732C128.966 48.5478 128.981 48.6276 128.979 48.708C130.279 49.394 130.279 50.079 130.962 50.689C130.962 51.989 131.572 52.67 131.572 53.889C131.572 54.575 131.572 55.262 130.962 55.262V56.481L129.595 57.852L134.169 53.278C134.779 52.668 135.469 51.978 136.151 51.978C136.761 51.292 137.371 50.678 137.371 50.072L139.352 49.386L139.962 48.7C140.332 49.0732 140.815 49.3142 141.335 49.386C141.663 49.7495 141.875 50.2019 141.944 50.686C141.992 51.1765 142.208 51.6356 142.554 51.986V53.892C142.483 54.5861 142.276 55.2593 141.944 55.873C141.944 55.873 140.644 57.856 139.963 59.073C138.916 60.2652 138.044 61.5998 137.371 63.037C136.761 64.257 135.465 64.943 134.779 66.237C134.169 67.537 134.169 68.22 133.559 68.829V70.129C133.559 70.129 135.465 69.443 136.759 68.829C137.369 67.529 138.74 66.848 139.959 64.942C141.429 63.5797 142.757 62.072 143.923 60.442C145.142 59.069 146.515 57.165 147.735 55.868V55.259H149.106V55.868C149.105 55.9543 149.085 56.0393 149.049 56.1176C149.013 56.196 148.962 56.2661 148.897 56.3234C148.833 56.3807 148.757 56.4241 148.675 56.4507C148.593 56.4773 148.506 56.4866 148.42 56.478C148.471 56.8393 148.436 57.2075 148.317 57.5523C148.197 57.8971 147.998 58.2086 147.734 58.461C146.746 59.4207 145.875 60.495 145.141 61.661C144.532 62.347 143.241 63.642 141.941 64.938C141.063 66.3777 139.985 67.6863 138.741 68.825C138.056 69.435 136.76 70.808 136.15 71.418C134.777 72.028 134.167 72.715 132.871 72.715Z" fill="white"/>
<path d="M173.652 45.501C174.339 46.11 174.339 46.11 173.652 46.11V46.797H173.043C172.716 46.4335 172.503 45.9811 172.433 45.497C171.705 45.1758 171.035 44.7366 170.45 44.197C169.841 43.51 169.15 43.51 167.858 42.897H162.065C160.692 44.88 159.473 46.097 158.788 48.692C157.488 50.673 156.195 52.655 154.899 54.561C153.558 56.3548 152.48 58.3316 151.699 60.431C150.681 61.8368 149.812 63.3449 149.107 64.931C148.542 66.186 148.083 67.4862 147.736 68.818L148.422 70.118C148.99 69.5939 149.633 69.1559 150.328 68.818C151.699 67.518 152.31 66.837 153.605 65.618C154.905 64.247 156.884 62.341 158.105 61.045C159.478 59.062 160.697 57.845 161.384 55.86C161.384 55.86 162.07 55.86 162.07 55.251H162.68C162.679 55.3314 162.694 55.4112 162.724 55.4857C162.754 55.5602 162.799 55.6279 162.856 55.6847C162.913 55.7415 162.981 55.7863 163.055 55.8164C163.13 55.8465 163.21 55.8614 163.29 55.86C162.945 56.2112 162.729 56.6698 162.68 57.16C162.269 57.6152 161.835 58.0491 161.38 58.46C160.727 59.6814 159.847 60.7674 158.788 61.66C158.101 63.031 156.882 64.252 156.195 65.623C154.895 66.843 153.603 67.529 152.918 68.823C151.9 69.7461 150.832 70.6117 149.718 71.416C148.418 72.025 147.736 72.716 147.126 72.716C145.826 72.716 145.143 72.029 144.534 72.029C144.534 72.029 143.924 71.42 143.234 70.81L142.547 68.827V66.846L143.234 64.94C143.92 63.64 143.92 63.034 144.534 61.663C145.289 60.2065 145.951 58.7034 146.516 57.163C147.702 55.8733 148.588 54.3364 149.108 52.663C150.328 51.292 151.014 49.386 152.308 48.09C152.891 46.2353 153.766 44.4851 154.899 42.905C154.103 43.3288 153.21 43.539 152.308 43.515H149.716C148.416 43.515 147.124 42.905 145.829 42.905L143.923 42.296L142.551 40.923C142.203 40.6068 141.985 40.1721 141.941 39.704C141.619 39.0855 141.413 38.4135 141.332 37.721C141.8 37.7654 142.235 37.983 142.551 38.331C142.551 38.331 143.923 39.017 145.143 39.704C146.603 40.2458 148.166 40.4539 149.717 40.313H155.51C157.148 38.3639 158.484 36.1799 159.474 33.834C160.084 32.534 160.693 31.242 160.693 31.242C160.693 29.942 160.693 29.942 161.38 29.942C161.874 29.9771 162.337 30.1941 162.68 30.551C163.506 31.0234 164.19 31.708 164.661 32.534C164.661 33.143 165.271 33.834 165.271 35.126C165.271 35.736 164.661 36.426 164.661 37.107C164.34 38.0368 163.878 38.9114 163.29 39.7H164.661C165.962 39.6032 167.267 39.8118 168.473 40.309C169.186 40.2581 169.893 40.4756 170.454 40.919C171.754 42.292 172.437 42.9 173.047 43.511L173.652 45.501Z" fill="white"/>
<path d="M170.455 72.716C169.846 72.716 169.155 72.029 168.474 71.416C167.864 70.806 167.864 70.116 167.255 69.433V66.841C167.231 65.9389 167.44 65.046 167.864 64.249C166.936 65.8659 165.865 67.3963 164.664 68.822C164.664 68.822 163.978 69.432 163.293 70.122C163.293 70.122 162.683 70.809 162.073 71.422L160.7 72.031L159.481 72.718C158.96 72.6453 158.479 72.404 158.109 72.031C157.647 71.9669 157.218 71.753 156.89 71.422C156.203 70.812 156.203 70.122 155.517 69.439V67.533C155.484 66.6202 155.722 65.7181 156.203 64.941C156.89 64.255 157.503 63.035 158.109 62.349C158.796 61.049 159.481 59.757 160.092 58.462C160.86 57.4662 161.525 56.3938 162.074 55.262C162.684 53.889 163.294 52.669 163.294 52.669C163.548 51.7122 164.017 50.8259 164.665 50.077C164.665 48.706 164.665 48.706 165.275 48.706C165.611 49.0844 166.073 49.3281 166.575 49.392L167.875 51.298C168.105 51.57 168.277 51.8857 168.382 52.2261C168.487 52.5666 168.522 52.9247 168.485 53.279C168.219 54.2025 167.808 55.0775 167.266 55.871C167.209 56.6182 167.004 57.3467 166.664 58.0143C166.324 58.6818 165.854 59.2752 165.283 59.76C164.673 61.06 163.983 62.352 163.302 63.647C162.298 64.5929 161.426 65.6691 160.709 66.847C160.387 67.4649 160.181 68.1362 160.1 68.828C159.768 69.4424 159.56 70.1163 159.49 70.811C159.49 70.811 160.709 70.124 162.082 69.438C162.724 68.2095 163.605 67.1215 164.674 66.238C166.11 64.8598 167.389 63.3261 168.486 61.665C169.858 60.445 171.077 58.465 172.45 57.165C173.06 55.259 174.356 53.886 175.042 52.665C175.652 51.294 176.262 50.073 176.262 50.073C176.262 48.702 176.262 48.702 176.948 48.702C176.948 49.388 177.634 49.388 178.248 50.073C178.248 50.073 178.858 50.683 179.548 51.293C179.991 51.8583 180.233 52.5556 180.234 53.274C180.234 54.574 179.548 55.257 178.863 56.474C178.411 57.6639 177.767 58.7716 176.957 59.753C176.271 61.053 175.657 62.345 175.051 63.64C174.123 64.6532 173.257 65.7219 172.459 66.84C172.099 67.4475 171.866 68.1213 171.773 68.821C171.086 70.121 171.086 70.804 171.773 70.804C172.123 70.4435 172.578 70.2031 173.073 70.117C173.695 69.4451 174.356 68.8107 175.054 68.217C175.857 67.2946 176.724 66.4282 177.646 65.624C178.633 64.6353 179.503 63.5356 180.238 62.347C181.243 61.3736 182.115 60.271 182.831 59.068C183.44 57.849 184.737 57.168 185.423 55.868L186.033 55.259H186.642V55.868C186.593 56.3583 186.378 56.8171 186.033 57.168C185.997 57.6619 185.78 58.1251 185.423 58.468C184.737 59.768 183.44 60.449 182.831 61.668C182.085 63.06 180.944 64.2002 179.552 64.945C178.667 66.4025 177.562 67.7138 176.275 68.832C175.544 70.0442 174.412 70.9618 173.075 71.425C172.342 72.0958 171.433 72.5437 170.455 72.716Z" fill="white"/>
<path d="M205.446 55.868L206.131 55.259H206.741V57.165C206.33 57.6201 205.896 58.054 205.441 58.465C204.788 59.6867 203.909 60.7727 202.849 61.665C202.162 63.036 200.943 64.257 200.257 65.628C198.957 66.848 197.664 67.534 196.368 68.828C195.759 70.128 194.387 70.811 193.777 71.421C192.477 72.03 191.795 72.721 191.185 72.721C189.885 72.721 189.203 72.034 188.593 72.034C188.593 72.034 187.983 71.425 187.293 70.815L186.606 68.832V66.851C186.65 65.9482 186.884 65.0648 187.293 64.259C187.612 63.342 188.049 62.4707 188.593 61.667C189.084 60.5044 189.752 59.4249 190.574 58.467C191.024 57.3003 191.669 56.2183 192.48 55.267C191.585 55.2974 190.704 55.5043 189.888 55.876C188.588 55.876 187.296 56.486 186 56.486L185.39 55.876C185.39 55.876 184.018 55.876 184.018 55.267C183.705 54.5529 183.295 53.8856 182.799 53.284V50.084C182.696 48.5343 182.903 46.9797 183.408 45.511C183.868 43.7899 184.76 42.2152 186.001 40.937C186.655 40.295 187.316 39.6596 187.983 39.031C189.889 37.731 190.575 37.731 190.575 37.731C192.481 37.731 193.167 37.731 193.775 38.341C194.385 39.027 194.385 39.714 194.385 40.933V42.306L193.775 44.212C193.165 44.898 193.165 45.512 192.475 46.112C192.172 47.0357 191.734 47.9095 191.175 48.705C190.337 50.377 189.259 51.9176 187.975 53.278L190.567 51.978C191.498 51.6943 192.375 51.2547 193.159 50.678C193.745 50.3436 194.394 50.1358 195.065 50.068C195.752 49.382 195.752 49.382 196.365 48.697C196.869 48.7553 197.333 49 197.665 49.383L198.352 50.069L199.571 51.289C199.826 51.5475 200.019 51.8594 200.138 52.202C200.257 52.5447 200.298 52.9095 200.258 53.27L199.571 55.253L197.665 57.159C196.979 58.459 196.365 59.751 196.365 59.751C195.567 61.0893 194.703 62.3866 193.774 63.638C193.033 64.3098 192.569 65.2342 192.474 66.23C191.733 66.9018 191.269 67.8262 191.174 68.822L192.474 70.122C193.043 69.598 193.685 69.16 194.38 68.822C195.752 68.213 196.361 66.841 197.657 65.622C198.957 64.251 200.25 62.345 201.546 61.049C202.852 59.07 204.146 57.854 205.446 55.868ZM186.007 50.075V50.685L186.616 51.985C186.614 52.0757 186.631 52.1658 186.665 52.25C186.698 52.3342 186.749 52.4106 186.813 52.4747C186.877 52.5388 186.954 52.5892 187.038 52.623C187.122 52.6567 187.213 52.6731 187.303 52.671C187.814 51.5107 188.453 50.4115 189.209 49.394L190.58 46.802C191.19 45.502 191.19 44.21 191.8 44.21L191.19 42.91L189.89 44.21L187.984 45.51C187.298 46.81 187.298 47.491 186.611 48.102L186.007 50.075Z" fill="white"/>
<path d="M222.292 55.868H222.902C222.902 55.259 223.588 55.259 223.588 55.868V57.168C222.902 57.168 222.902 57.854 222.288 58.468C221.678 59.768 220.307 60.449 219.696 61.668C218.396 63.039 217.104 64.26 215.808 65.631C215.121 66.851 213.902 67.537 212.529 68.831C211.43 69.9232 210.138 70.8024 208.718 71.424C207.501 72.1279 206.151 72.5706 204.754 72.724C204.144 72.724 203.534 72.037 202.848 71.424L201.548 70.124C200.744 69.2179 200.284 68.058 200.248 66.847C200.31 65.2638 200.756 63.7194 201.548 62.347C202.157 61.047 202.848 59.755 203.53 58.46C204.75 57.16 205.436 55.867 206.73 54.571C207.34 53.271 208.713 52.665 209.93 51.979C210.18 51.4784 210.545 51.0445 210.996 50.713C211.447 50.3816 211.97 50.1622 212.522 50.073C213.257 49.7341 213.928 49.2703 214.505 48.702L215.805 49.388C216.057 49.4097 216.301 49.4816 216.524 49.5995C216.748 49.7173 216.945 49.8786 217.105 50.074C217.104 50.1545 217.119 50.2344 217.149 50.309C217.179 50.3837 217.224 50.4514 217.281 50.5084C217.338 50.5653 217.405 50.6102 217.48 50.6403C217.555 50.6705 217.635 50.6854 217.715 50.684C217.715 52.665 218.401 53.276 218.401 54.571L217.715 56.477C217.105 57.85 216.495 58.46 215.809 59.756C214.667 60.2881 213.75 61.206 213.218 62.348C211.918 63.034 211.312 63.648 209.939 64.254C209.37 64.7973 208.729 65.2587 208.033 65.625C207.443 65.9497 206.796 66.1569 206.127 66.235C205.932 66.3949 205.77 66.5923 205.652 66.8156C205.535 67.0389 205.463 67.2835 205.441 67.535V68.835L206.741 69.445C207.351 69.445 208.041 69.445 209.941 68.226C211.406 67.3194 212.74 66.2161 213.905 64.947C215.532 63.8062 217.04 62.5039 218.405 61.06C219.701 59.07 220.997 57.851 222.292 55.868ZM214.517 54.568L213.907 55.255C213.821 55.2463 213.735 55.2554 213.653 55.2819C213.571 55.3084 213.495 55.3517 213.43 55.4089C213.366 55.4662 213.314 55.5362 213.278 55.6145C213.242 55.6928 213.223 55.7778 213.221 55.864L211.921 57.164C210.621 58.464 210.621 59.064 209.94 59.756C208.721 61.056 208.034 63.033 206.74 64.939C208.04 63.639 209.332 63.033 210.628 61.662C211.413 60.9186 212.059 60.0404 212.534 59.069C214.517 57.169 214.517 56.477 214.517 56.477C214.706 56.1954 214.807 55.8638 214.807 55.5245C214.807 55.1852 214.706 54.8536 214.517 54.572V54.568Z" fill="white"/>
</g>
<defs>
<clipPath id="clip0_18_3">
<rect width="223" height="103" fill="white"/>
</clipPath>
</defs>
</svg>
