<svg width="100" height="100" viewBox="0 0 100 100" fill="none" xmlns="http://www.w3.org/2000/svg">
<circle cx="50" cy="50" r="50" fill="white"/>
<path fill-rule="evenodd" clip-rule="evenodd" d="M33.1111 33.7143C31.6272 33.7143 30.4242 34.7776 30.4242 36.0893V63.9098C30.4242 65.2213 31.627 66.2857 33.1111 66.2857C34.595 66.2857 35.798 65.2224 35.798 63.9107V36.0893C35.798 34.7776 34.595 33.7143 33.1111 33.7143ZM27.3535 62.8399V37.1602C25.3174 36.2531 22.7475 37.5358 22.7475 39.6908V40.5H21.2121H19.6768V39.6908C19.6768 35.8173 23.9089 33.3785 27.6921 34.3656C28.4912 32.4032 30.6158 31 33.1111 31C36.2909 31 38.8687 33.2786 38.8687 36.0893V43.2143H61.899V36.0893C61.899 33.2786 64.4767 31 67.6566 31C70.0393 31 72.084 32.2794 72.9593 34.1034C76.8075 33.0826 81.0909 35.5707 81.0909 39.4821V43.2143H83.3939C85.9378 43.2143 88 45.0371 88 47.2857V52.7143C88 54.9629 85.9378 56.7857 83.3939 56.7857H81.0909V60.31C81.0909 64.1839 76.8586 66.6216 73.0755 65.6344C72.2765 67.5968 70.1519 69 67.6566 69C64.477 69 61.899 66.722 61.899 63.9111V56.7857H38.8687V63.9107C38.8687 66.7215 36.2909 69 33.1111 69C30.6158 69 28.491 67.597 27.692 65.6344C23.9091 66.6217 19.6768 64.1847 19.6768 60.3107V56.7857H16.6061C14.0625 56.7857 12 54.9635 12 52.7146V47.2849C12 45.0362 14.0615 43.2143 16.6053 43.2143H19.6768V40.5014L21.2121 40.5H22.7475V55.4283V60.3107C22.7475 62.4649 25.3169 63.7476 27.3535 62.8399ZM19.6768 54.0714V45.9286H16.6053C15.7572 45.9286 15.0707 46.5355 15.0707 47.2849V52.7146C15.0707 53.4639 15.7578 54.0714 16.6061 54.0714H19.6768ZM38.8687 54.0714H61.899V51.3571H52.6869V48.6429H61.899V45.9286H38.8687V54.0714ZM73.4141 62.8398C75.4506 63.7473 78.0202 62.4646 78.0202 60.31V39.4821C78.0202 37.3244 75.4899 36.0075 73.4141 36.8506V62.8398ZM81.0909 54.0714H83.3939C84.2419 54.0714 84.9293 53.4638 84.9293 52.7143V47.2857C84.9293 46.5362 84.2419 45.9286 83.3939 45.9286H81.0909V54.0714ZM67.6566 33.7143C66.1726 33.7143 64.9697 34.7776 64.9697 36.0893V63.9111C64.9697 65.2226 66.1724 66.2857 67.6566 66.2857C69.1405 66.2857 70.3434 65.2224 70.3434 63.9107V36.0893C70.3434 34.7776 69.1405 33.7143 67.6566 33.7143Z" fill="#FF4422"/>
<path fill-rule="evenodd" clip-rule="evenodd" d="M50.3838 50C50.3838 49.2505 51.0712 48.6429 51.9192 48.6429H54.9899C55.8379 48.6429 56.5253 49.2505 56.5253 50C56.5253 50.7495 55.8379 51.3571 54.9899 51.3571H51.9192C51.0712 51.3571 50.3838 50.7495 50.3838 50Z" fill="#FF4422"/>
</svg>
